<svg xmlns="http://www.w3.org/2000/svg" viewBox="0 0 417.4 665.2" width="1569" height="2500"><path d="M198.9 424.1l-.4 240.9h216L198.9 424.1z" fill="#258c31" stroke="#258c31" stroke-width=".38" stroke-linecap="round" stroke-linejoin="round" stroke-miterlimit="1.5"/><path d="M.2 423.7l198.7.4-.4 240.9L.2 423.7z" fill="#498f36" stroke="#498f36" stroke-width=".38" stroke-linecap="round" stroke-linejoin="round" stroke-miterlimit="1.5"/><path d="M.2 274.5v149.2l198.7.4-.4-149.6H.2z" fill="#b5cc02" stroke="#b5cc02" stroke-width=".38" stroke-linecap="round" stroke-linejoin="round" stroke-miterlimit="1.5"/><path d="M198.9 424.1l-.4-149.6c27.3 1.7 59.5-14.5 66.8-51.8h151.9c-4.4 116.8-116 197.7-198.1 201.4h-20.2z" fill="#88bd24" stroke="#88bd24" stroke-width=".38" stroke-linecap="round" stroke-linejoin="round" stroke-miterlimit="1.5"/><path d="M202.4.2l.4 146.9c38.1.6 67.4 32 62.5 75.6h151.9C418 101.3 341.1 11.7 202.4.2z" fill="#4aa734" stroke="#4aa734" stroke-width=".38" stroke-linecap="round" stroke-linejoin="round" stroke-miterlimit="1.5"/><path d="M.2.2v146.5l202.6.4L202.4.2H.2z" fill="#1f9b47" stroke="#1f9b47" stroke-width=".38" stroke-linecap="round" stroke-linejoin="round" stroke-miterlimit="1.5"/></svg>